<?xml version="1.0" encoding="UTF-8" standalone="no"?>
<!-- Uploaded to: SVG Repo, www.svgrepo.com, Generator: SVG Repo Mixer Tools -->

<svg
   width="464.84299"
   height="464.84299"
   viewBox="0 0 27.890579 27.89058"
   version="1.1"
   id="svg5"
   sodipodi:docname="favicon.svg"
   inkscape:export-filename="favicon.svg"
   inkscape:export-xdpi="96"
   inkscape:export-ydpi="96"
   inkscape:version="1.3 (003919af9c, 2023-07-16)"
   xmlns:inkscape="http://www.inkscape.org/namespaces/inkscape"
   xmlns:sodipodi="http://sodipodi.sourceforge.net/DTD/sodipodi-0.dtd"
   xmlns="http://www.w3.org/2000/svg"
   xmlns:svg="http://www.w3.org/2000/svg">
  <sodipodi:namedview
     id="namedview5"
     pagecolor="#ffffff"
     bordercolor="#000000"
     borderopacity="0.25"
     inkscape:showpageshadow="2"
     inkscape:pageopacity="0.0"
     inkscape:pagecheckerboard="0"
     inkscape:deskcolor="#d1d1d1"
     inkscape:zoom="1.49625"
     inkscape:cx="183.79282"
     inkscape:cy="133.33334"
     inkscape:window-width="2560"
     inkscape:window-height="1411"
     inkscape:window-x="1911"
     inkscape:window-y="-9"
     inkscape:window-maximized="1"
     inkscape:current-layer="svg5"
     inkscape:export-bgcolor="#ffffffff" />
  <defs
     id="defs1">
    <style
       id="style1">.a{fill:none;stroke:#000000;stroke-linecap:round;stroke-linejoin:round;}</style>
  </defs>
  <path
     class="a"
     d="M 0.60000002,19.36799 V 8.5221899 H 2.3625 A 5.4388,5.4388 0 0 1 7.7853004,13.94549 v 0 A 5.4388,5.4388 0 0 1 2.3625,19.36839 Z"
     id="path1"
     style="stroke:#00a499;stroke-width:1.2;stroke-dasharray:none;stroke-opacity:1" />
  <polyline
     class="a"
     points="20.407 24.962 20.407 14.117 27.593 24.962 27.593 14.117"
     id="polyline1"
     style="stroke:#00a499;stroke-width:1.2;stroke-dasharray:none;stroke-opacity:1"
     transform="translate(-10.0547,-5.5942103)" />
  <path
     class="a"
     d="m 20.2408,18.154945 a 3.2324,3.2324 0 0 0 2.7115,1.22 h 1.6268 a 2.7194,2.7194 0 0 0 2.7115,-2.711399 v 0 a 2.7194,2.7194 0 0 0 -2.7115,-2.7109 h -1.7624 a 2.7194,2.7194 0 0 1 -2.7114,-2.7119 v 0 a 2.7193,2.7193 0 0 1 2.7114,-2.7113999 h 1.6269 a 2.911,2.911 0 0 1 2.7114,1.22"
     id="path2"
     style="stroke:#00a499;stroke-width:1.2;stroke-dasharray:none;stroke-opacity:1" />
</svg>
